:SAMPLES-PER-SECOND 30
:FULLY-SPECIFIED
:DEGREES
867
root  67.6639 39.6566 -12.3046 -172.927 -21.5743 176.24
RightUpLeg  -17.8176 -1.51698 1.20196
RightLeg  22.0414 11.6027 4.90434
RightFoot  -5.00873 0.280252 -5.6689
RightToes  -1.16417e-010 0 -3.6325e-017
Spine  41.938 -6.07892 3.19659
Spine1  -1.36731 -7.88499 13.4851
HEad  -29.4869 -10.7906 5.17191
LeftShoulder1  9.34597 -17.0183 -39.3082
LeftArm  -22.7653 -3.16018 -13.2867
LeftForeArm  0.569944 -8.50164 -2.72058
LeftHand  -0.244104 0.0205437 5.32207
RightShoulder  6.44745 11.6189 36.6319
RightArm  -13.2498 9.69663 24.7723
RightForeArm  -26.9224 16.2718 7.31608
RightHand  -0.525051 0.0459908 -11.2701
LeftUpLeg  -20.6262 17.1932 4.35561
LeftLeg  49.6969 8.65098 11.203
LeftFoot  0.808952 0.343483 -3.28059
LeftToes  -2.09216e-011 1.96776e-011 -5.83545e-012
868
root  67.537 39.7474 -12.677 -173.188 -19.5528 175.749
RightUpLeg  -16.6493 -1.17486 0.697677
RightLeg  21.732 13.1045 5.43466
RightFoot  -4.87834 0.330349 -6.4229
RightToes  -1.16417e-010 0 -3.6325e-017
Spine  39.962 -5.45932 3.25674
Spine1  -0.675407 -7.25098 12.7003
HEad  -28.8282 -12.4076 4.65864
LeftShoulder1  10.1172 -17.8203 -41.1027
LeftArm  -21.286 -11.9408 -16.5386
LeftForeArm  6.16756 -5.76349 -3.46894
LeftHand  -0.244104 0.0205437 5.32207
RightShoulder  6.91474 12.3222 37.6504
RightArm  -7.37106 19.59 28.3643
RightForeArm  -24.0233 18.9541 6.83865
RightHand  -0.559342 0.763765 -10.6561
LeftUpLeg  -23.0002 10.7297 2.20827
LeftLeg  47.4842 7.96693 9.62257
LeftFoot  -0.696577 0.403575 -4.28584
LeftToes  -2.09216e-011 1.96776e-011 -5.83545e-012
869
root  67.4004 39.8148 -13.0856 -173.563 -17.4414 175.334
RightUpLeg  -15.5107 -0.859604 0.263166
RightLeg  21.7287 14.5221 5.96189
RightFoot  -4.88965 0.373457 -7.1987
RightToes  -1.16417e-010 0 -3.6325e-017
Spine  38.0494 -4.94439 3.05167
Spine1  0.19421 -6.87524 12.0702
HEad  -28.3839 -13.0965 3.89238
LeftShoulder1  10.9032 -18.359 -43.3679
LeftArm  -19.8677 -19.2385 -19.3532
LeftForeArm  15.8917 -6.29888 -4.20679
LeftHand  -0.244104 0.0205437 5.32207
RightShoulder  7.4593 13.0734 38.9057
RightArm  -0.798002 29.829 32.7294
RightForeArm  -20.3755 19.2028 6.8844
RightHand  -0.657788 1.80863 -10.7559
LeftUpLeg  -24.8023 4.57381 0.771145
LeftLeg  43.856 7.30036 7.84527
LeftFoot  -1.4177 0.464229 -5.24044
LeftToes  -2.09216e-011 1.96776e-011 -5.83545e-012
870
root  67.2664 39.8521 -13.5487 -174.326 -15.5264 175.243
RightUpLeg  -13.8925 -0.412526 0.179758
RightLeg  21.5955 15.5722 6.25247
RightFoot  -5.22591 0.371357 -7.59284
RightToes  -1.16417e-010 0 -3.6325e-017
Spine  36.7504 -4.34012 2.58269
Spine1  0.512596 -6.58229 12.4058
HEad  -27.7816 -13.2087 2.88431
LeftShoulder1  11.73 -18.612 -46.2278
LeftArm  -17.158 -25.308 -22.1713
LeftForeArm  25.0926 -9.04549 -5.21109
LeftHand  -0.244104 0.0205437 5.32207
RightShoulder  7.6033 13.5798 38.4249
RightArm  5.89712 38.8823 40.09
RightForeArm  -15.4769 17.2895 7.75772
RightHand  -0.747705 2.28668 -11.4866
LeftUpLeg  -25.9207 -1.30154 0.227822
LeftLeg  39.3291 6.49196 6.04611
LeftFoot  -1.27506 0.526154 -5.88418
LeftToes  -2.09216e-011 1.96776e-011 -5.83545e-012
871
root  67.1511 39.8583 -14.0857 -175.276 -13.7642 175.413
RightUpLeg  -11.9101 0.165296 0.422767
RightLeg  21.3075 16.5608 6.41226
RightFoot  -5.88229 0.334931 -7.84284
RightToes  -1.16417e-010 0 -3.6325e-017
Spine  35.4411 -2.57179 1.16923
Spine1  0.814588 -5.92396 15.7234
HEad  -27.5594 -13.0344 1.50336
LeftShoulder1  13.1677 -18.9019 -51.2864
LeftArm  -11.2978 -31.0102 -25.0165
LeftForeArm  29.9764 -12.7635 -5.96176
LeftHand  -0.244104 0.0205437 5.32207
RightShoulder  6.69938 13.4231 33.6021
RightArm  12.0616 45.2343 51.3407
RightForeArm  -9.65346 15.3674 8.62693
RightHand  -0.773166 1.92841 -12.4252
LeftUpLeg  -26.5703 -5.79288 0.168096
LeftLeg  34.3324 5.02002 4.03855
LeftFoot  -0.922745 0.549831 -5.97029
LeftToes  -2.09216e-011 1.96776e-011 -5.83545e-012
872
root  67.0549 39.8426 -14.6982 -176.178 -12.1105 175.688
RightUpLeg  -9.93614 0.539114 0.797404
RightLeg  21.1927 17.612 6.67914
RightFoot  -6.64667 0.305958 -8.54281
RightToes  -1.16417e-010 0 -3.6325e-017
Spine  33.8475 -1.39761 0.377031
Spine1  1.33494 -5.35487 17.293
HEad  -27.223 -12.2104 1.36182
LeftShoulder1  13.9307 -19.093 -53.7352
LeftArm  -3.97871 -35.0128 -30.009
LeftForeArm  30.9806 -16.6547 -5.32891
LeftHand  -0.244104 0.0205437 5.32207
RightShoulder  5.94844 13.2508 29.526
RightArm  20.4328 49.0717 62.6847
RightForeArm  -6.02628 15.5344 8.52067
RightHand  -0.818326 1.60998 -13.6835
LeftUpLeg  -26.8877 -7.60368 -0.105439
LeftLeg  29.1574 2.61731 1.92382
LeftFoot  -0.419911 0.554938 -5.7834
LeftToes  -2.09216e-011 1.96776e-011 -5.83545e-012
873
root  66.9834 39.8173 -15.3784 -176.929 -10.7065 175.975
RightUpLeg  -8.17024 0.571383 1.15163
RightLeg  21.3764 18.3567 7.06567
RightFoot  -7.31947 0.282824 -9.42346
RightToes  -1.16417e-010 0 -3.6325e-017
Spine  32.5503 -1.55844 0.6081
Spine1  1.30434 -5.14305 15.6443
HEad  -25.689 -11.8318 1.55984
LeftShoulder1  13.6031 -19.2191 -52.2185
LeftArm  -0.0222107 -36.5554 -36.1179
LeftForeArm  31.1523 -19.5735 -4.17819
LeftHand  -0.244104 0.0205437 5.32207
RightShoulder  5.94719 13.4362 29.108
RightArm  32.0209 50.6075 71.3593
RightForeArm  -5.5922 18.5748 7.04047
RightHand  -0.975075 1.99022 -15.4452
LeftUpLeg  -26.7766 -6.31055 -1.19101
LeftLeg  23.9166 -0.282613 0.197216
LeftFoot  1.1216 0.687144 -6.33076
LeftToes  -2.09216e-011 1.96776e-011 -5.83545e-012
